<?xml version="1.0" standalone="no"?>
<!DOCTYPE svg PUBLIC "-//W3C//DTD SVG 20010904//EN"
 "http://www.w3.org/TR/2001/REC-SVG-20010904/DTD/svg10.dtd">
<svg version="1.0" xmlns="http://www.w3.org/2000/svg"
 width="260.000000pt" height="260.000000pt" viewBox="0 0 260.000000 260.000000"
 preserveAspectRatio="xMidYMid meet">
<metadata>
Created by potrace 1.11, written by Peter Selinger 2001-2013
</metadata>
<g transform="translate(0.000000,260.000000) scale(0.100000,-0.100000)"
fill="#000000" stroke="none">
<path d="M945 2138 c-11 -7 -24 -16 -30 -22 -5 -6 -161 -237 -345 -513 -208
-312 -341 -502 -351 -503 -9 0 -28 -9 -43 -21 -15 -12 -45 -22 -68 -24 -86 -7
-128 -77 -92 -151 22 -44 95 -93 300 -200 198 -104 382 -172 594 -221 82 -19
296 -24 385 -10 43 7 156 36 205 53 8 3 16 5 17 5 18 -3 255 113 418 204 241
135 436 222 653 291 9 3 -9 32 -53 87 -122 149 -266 274 -370 321 -73 32 -80
35 -140 53 -60 18 -84 41 -168 159 -118 167 -291 383 -314 393 -59 23 -91 3
-179 -109 -42 -55 -78 -100 -80 -100 -1 0 -48 64 -105 141 -124 171 -170 204
-234 167z"/>
</g>
</svg>
